<!--?xml version="1.0" encoding="UTF-8" standalone="no"?-->

<!-- Generated by graphviz version 2.28.0 (20110507.0327)
 -->
<!-- Title: stateGraph Pages: 1 -->
<svg width="571pt" height="494pt" viewBox="0.00 0.00 570.64 494.00" xmlns="http://www.w3.org/2000/svg" xmlns:xlink="http://www.w3.org/1999/xlink">
<g id="graph1" class="graph" transform="scale(1 1) rotate(0) translate(4 490)">
<title>stateGraph</title>
<polygon fill="white" stroke="white" points="-4,5 -4,-490 567.638,-490 567.638,5 -4,5"></polygon>
<!-- 64 -->
<g id="node1" class="node"><title>64</title>
<ellipse fill="none" stroke="black" cx="286.306" cy="-468" rx="27" ry="18"></ellipse>
<text text-anchor="middle" x="286.306" y="-463.8" font-family="Times,serif" font-size="14.00">64</text>
</g>
<!-- 60 -->
<g id="node3" class="node"><title>60</title>
<ellipse fill="none" stroke="black" cx="286.306" cy="-378" rx="27" ry="18"></ellipse>
<text text-anchor="middle" x="286.306" y="-373.8" font-family="Times,serif" font-size="14.00">60</text>
</g>
<!-- 64&#45;&gt;60 -->
<g id="edge2" class="edge"><title>64-&gt;60</title>
<path fill="none" stroke="black" d="M259.464,-465.151C218.042,-461.677 141.569,-452.582 124.973,-432 90.5664,-389.329 191.238,-380.683 248.927,-379.148"></path>
<polygon fill="black" stroke="black" points="249.23,-382.642 259.156,-378.937 249.086,-375.644 249.23,-382.642"></polygon>
<text text-anchor="middle" x="154.472" y="-418.8" font-family="Times,serif" font-size="14.00">RR_Move</text>
</g>
<!-- 64&#45;&gt;60 -->
<g id="edge4" class="edge"><title>64-&gt;60</title>
<path fill="none" stroke="black" d="M260.136,-463.199C241.563,-458.986 217.894,-450.197 205.973,-432 191.947,-410.59 223.472,-395.825 251.055,-387.419"></path>
<polygon fill="black" stroke="black" points="252.284,-390.709 260.948,-384.609 250.372,-383.975 252.284,-390.709"></polygon>
<text text-anchor="middle" x="235.472" y="-418.8" font-family="Times,serif" font-size="14.00">RR_Move</text>
</g>
<!-- 64&#45;&gt;60 -->
<g id="edge6" class="edge"><title>64-&gt;60</title>
<path fill="none" stroke="black" d="M286.306,-449.614C286.306,-437.24 286.306,-420.369 286.306,-406.22"></path>
<polygon fill="black" stroke="black" points="289.806,-406.05 286.306,-396.05 282.806,-406.05 289.806,-406.05"></polygon>
<text text-anchor="middle" x="315.472" y="-418.8" font-family="Times,serif" font-size="14.00">RR_Move</text>
</g>
<!-- 64&#45;&gt;60 -->
<g id="edge8" class="edge"><title>64-&gt;60</title>
<path fill="none" stroke="black" d="M310.147,-459.435C323.011,-453.997 337.761,-445.247 345.306,-432 354.632,-415.623 337.119,-401.608 318.801,-392.11"></path>
<polygon fill="black" stroke="black" points="320.104,-388.853 309.573,-387.693 317.082,-395.168 320.104,-388.853"></polygon>
<text text-anchor="middle" x="376.472" y="-418.8" font-family="Times,serif" font-size="14.00">RR_Move</text>
</g>
<!-- 64&#45;&gt;60 -->
<g id="edge10" class="edge"><title>64-&gt;60</title>
<path fill="none" stroke="black" d="M312.498,-463.272C345.026,-458.044 397.665,-447.414 409.306,-432 433.745,-399.636 367.789,-386.77 323.268,-381.857"></path>
<polygon fill="black" stroke="black" points="323.608,-378.373 313.307,-380.848 322.903,-385.338 323.608,-378.373"></polygon>
<text text-anchor="middle" x="443.472" y="-418.8" font-family="Times,serif" font-size="14.00">RR_Move</text>
</g>
<!-- 56 -->
<g id="node9" class="node"><title>56</title>
<ellipse fill="none" stroke="black" cx="286.306" cy="-288" rx="27" ry="18"></ellipse>
<text text-anchor="middle" x="286.306" y="-283.8" font-family="Times,serif" font-size="14.00">56</text>
</g>
<!-- 60&#45;&gt;56 -->
<g id="edge22" class="edge"><title>60-&gt;56</title>
<path fill="none" stroke="black" d="M259.15,-375.645C191.697,-372.001 20.735,-360.968 3.9731,-342 -1.32437,-336.005 -1.32437,-329.995 3.9731,-324 19.9493,-305.921 176.009,-295.05 249.009,-290.916"></path>
<polygon fill="black" stroke="black" points="249.359,-294.403 259.15,-290.355 248.972,-287.413 249.359,-294.403"></polygon>
<text text-anchor="middle" x="33.4717" y="-328.8" font-family="Times,serif" font-size="14.00">RR_Move</text>
</g>
<!-- 60&#45;&gt;56 -->
<g id="edge24" class="edge"><title>60-&gt;56</title>
<path fill="none" stroke="black" d="M259.346,-376.431C209.718,-374.754 106.954,-368.132 84.9731,-342 79.8234,-335.878 79.8234,-330.122 84.9731,-324 105.537,-299.552 196.807,-292.181 249.123,-289.958"></path>
<polygon fill="black" stroke="black" points="249.487,-293.447 259.346,-289.569 249.22,-286.452 249.487,-293.447"></polygon>
<text text-anchor="middle" x="114.472" y="-328.8" font-family="Times,serif" font-size="14.00">RR_Move</text>
</g>
<!-- 60&#45;&gt;56 -->
<g id="edge26" class="edge"><title>60-&gt;56</title>
<path fill="none" stroke="black" d="M259.204,-376.142C234.797,-373.756 200.192,-366.012 182.973,-342 163.427,-314.743 212.921,-300.53 249.98,-293.918"></path>
<polygon fill="black" stroke="black" points="250.742,-297.34 260.034,-292.25 249.596,-290.434 250.742,-297.34"></polygon>
<text text-anchor="middle" x="212.472" y="-328.8" font-family="Times,serif" font-size="14.00">RR_Move</text>
</g>
<!-- 60&#45;&gt;56 -->
<g id="edge12" class="edge"><title>60-&gt;56</title>
<path fill="none" stroke="black" d="M266.95,-365.102C259.217,-359.207 251.164,-351.34 246.973,-342 243.698,-334.701 243.698,-331.299 246.973,-324 249.724,-317.87 254.137,-312.376 259.032,-307.656"></path>
<polygon fill="black" stroke="black" points="261.615,-310.052 266.95,-300.898 257.071,-304.728 261.615,-310.052"></polygon>
<text text-anchor="middle" x="276.472" y="-328.8" font-family="Times,serif" font-size="14.00">RR_Move</text>
</g>
<!-- 60&#45;&gt;56 -->
<g id="edge14" class="edge"><title>60-&gt;56</title>
<path fill="none" stroke="black" d="M296.977,-361.315C300.332,-355.508 303.604,-348.701 305.306,-342 307.274,-334.246 307.274,-331.754 305.306,-324 304.428,-320.545 303.133,-317.061 301.625,-313.701"></path>
<polygon fill="black" stroke="black" points="304.67,-311.97 296.977,-304.685 298.448,-315.177 304.67,-311.97"></polygon>
<text text-anchor="middle" x="335.472" y="-328.8" font-family="Times,serif" font-size="14.00">RR_Move</text>
</g>
<!-- 60&#45;&gt;56 -->
<g id="edge16" class="edge"><title>60-&gt;56</title>
<path fill="none" stroke="black" d="M312.604,-373.444C331.612,-369.348 356.022,-360.599 368.306,-342 382.762,-320.111 349.775,-305.318 321.422,-297.041"></path>
<polygon fill="black" stroke="black" points="322.24,-293.637 311.672,-294.384 320.4,-300.39 322.24,-293.637"></polygon>
<text text-anchor="middle" x="400.472" y="-328.8" font-family="Times,serif" font-size="14.00">RR_Move</text>
</g>
<!-- 60&#45;&gt;56 -->
<g id="edge18" class="edge"><title>60-&gt;56</title>
<path fill="none" stroke="black" d="M312.975,-374.545C351.199,-370.413 418.589,-360.631 433.306,-342 463.967,-303.181 376.37,-292.773 323.425,-289.997"></path>
<polygon fill="black" stroke="black" points="323.492,-286.497 313.343,-289.538 323.173,-293.489 323.492,-286.497"></polygon>
<text text-anchor="middle" x="468.472" y="-328.8" font-family="Times,serif" font-size="14.00">RR_Move</text>
</g>
<!-- 60&#45;&gt;56 -->
<g id="edge20" class="edge"><title>60-&gt;56</title>
<path fill="none" stroke="black" d="M313.443,-376.762C365.751,-375.665 477.48,-370.017 501.306,-342 506.488,-335.906 506.488,-330.094 501.306,-324 478.923,-297.679 378.958,-291.101 323.565,-289.492"></path>
<polygon fill="black" stroke="black" points="323.528,-285.99 313.443,-289.238 323.353,-292.988 323.528,-285.99"></polygon>
<text text-anchor="middle" x="533.472" y="-328.8" font-family="Times,serif" font-size="14.00">RR_Move</text>
</g>
<!-- 52 -->
<g id="node18" class="node"><title>52</title>
<ellipse fill="none" stroke="black" cx="286.306" cy="-198" rx="27" ry="18"></ellipse>
<text text-anchor="middle" x="286.306" y="-193.8" font-family="Times,serif" font-size="14.00">52</text>
</g>
<!-- 56&#45;&gt;52 -->
<g id="edge28" class="edge"><title>56-&gt;52</title>
<path fill="none" stroke="black" d="M259.346,-286.431C209.718,-284.754 106.954,-278.132 84.9731,-252 79.8234,-245.878 79.8234,-240.122 84.9731,-234 105.537,-209.552 196.807,-202.181 249.123,-199.958"></path>
<polygon fill="black" stroke="black" points="249.487,-203.447 259.346,-199.569 249.22,-196.452 249.487,-203.447"></polygon>
<text text-anchor="middle" x="114.472" y="-238.8" font-family="Times,serif" font-size="14.00">RR_Move</text>
</g>
<!-- 56&#45;&gt;52 -->
<g id="edge30" class="edge"><title>56-&gt;52</title>
<path fill="none" stroke="black" d="M259.152,-287.745C230.753,-286.875 187.392,-280.537 165.973,-252 142.186,-220.309 205.982,-207.227 249.525,-202.089"></path>
<polygon fill="black" stroke="black" points="249.987,-205.559 259.551,-201.001 249.231,-198.6 249.987,-205.559"></polygon>
<text text-anchor="middle" x="195.472" y="-238.8" font-family="Times,serif" font-size="14.00">RR_Move</text>
</g>
<!-- 56&#45;&gt;52 -->
<g id="edge32" class="edge"><title>56-&gt;52</title>
<path fill="none" stroke="black" d="M266.95,-275.102C259.217,-269.207 251.164,-261.34 246.973,-252 243.698,-244.701 243.698,-241.299 246.973,-234 249.724,-227.87 254.137,-222.376 259.032,-217.656"></path>
<polygon fill="black" stroke="black" points="261.615,-220.052 266.95,-210.898 257.071,-214.728 261.615,-220.052"></polygon>
<text text-anchor="middle" x="276.472" y="-238.8" font-family="Times,serif" font-size="14.00">RR_Move</text>
</g>
<!-- 56&#45;&gt;52 -->
<g id="edge34" class="edge"><title>56-&gt;52</title>
<path fill="none" stroke="black" d="M296.977,-271.315C300.332,-265.508 303.604,-258.701 305.306,-252 307.274,-244.246 307.274,-241.754 305.306,-234 304.428,-230.545 303.133,-227.061 301.625,-223.701"></path>
<polygon fill="black" stroke="black" points="304.67,-221.97 296.977,-214.685 298.448,-225.177 304.67,-221.97"></polygon>
<text text-anchor="middle" x="335.472" y="-238.8" font-family="Times,serif" font-size="14.00">RR_Move</text>
</g>
<!-- 56&#45;&gt;52 -->
<g id="edge36" class="edge"><title>56-&gt;52</title>
<path fill="none" stroke="black" d="M312.604,-283.444C331.612,-279.348 356.022,-270.599 368.306,-252 382.762,-230.111 349.775,-215.318 321.422,-207.041"></path>
<polygon fill="black" stroke="black" points="322.24,-203.637 311.672,-204.384 320.4,-210.39 322.24,-203.637"></polygon>
<text text-anchor="middle" x="400.472" y="-238.8" font-family="Times,serif" font-size="14.00">RR_Move</text>
</g>
<!-- 56&#45;&gt;52 -->
<g id="edge38" class="edge"><title>56-&gt;52</title>
<path fill="none" stroke="black" d="M312.975,-284.545C351.199,-280.413 418.589,-270.631 433.306,-252 463.967,-213.181 376.37,-202.773 323.425,-199.997"></path>
<polygon fill="black" stroke="black" points="323.492,-196.497 313.343,-199.538 323.173,-203.489 323.492,-196.497"></polygon>
<text text-anchor="middle" x="468.472" y="-238.8" font-family="Times,serif" font-size="14.00">RR_Move</text>
</g>
<!-- 48 -->
<g id="node25" class="node"><title>48</title>
<ellipse fill="none" stroke="black" cx="286.306" cy="-108" rx="27" ry="18"></ellipse>
<text text-anchor="middle" x="286.306" y="-103.8" font-family="Times,serif" font-size="14.00">48</text>
</g>
<!-- 52&#45;&gt;48 -->
<g id="edge40" class="edge"><title>52-&gt;48</title>
<path fill="none" stroke="black" d="M259.346,-196.431C209.718,-194.754 106.954,-188.132 84.9731,-162 79.8234,-155.878 79.8234,-150.122 84.9731,-144 105.537,-119.552 196.807,-112.181 249.123,-109.958"></path>
<polygon fill="black" stroke="black" points="249.487,-113.447 259.346,-109.569 249.22,-106.452 249.487,-113.447"></polygon>
<text text-anchor="middle" x="114.472" y="-148.8" font-family="Times,serif" font-size="14.00">RR_Move</text>
</g>
<!-- 52&#45;&gt;48 -->
<g id="edge42" class="edge"><title>52-&gt;48</title>
<path fill="none" stroke="black" d="M259.152,-197.745C230.753,-196.875 187.392,-190.537 165.973,-162 142.186,-130.309 205.982,-117.227 249.525,-112.089"></path>
<polygon fill="black" stroke="black" points="249.987,-115.559 259.551,-111.001 249.231,-108.6 249.987,-115.559"></polygon>
<text text-anchor="middle" x="195.472" y="-148.8" font-family="Times,serif" font-size="14.00">RR_Move</text>
</g>
<!-- 52&#45;&gt;48 -->
<g id="edge44" class="edge"><title>52-&gt;48</title>
<path fill="none" stroke="black" d="M266.95,-185.102C259.217,-179.207 251.164,-171.34 246.973,-162 243.698,-154.701 243.698,-151.299 246.973,-144 249.724,-137.87 254.137,-132.376 259.032,-127.656"></path>
<polygon fill="black" stroke="black" points="261.615,-130.052 266.95,-120.898 257.071,-124.728 261.615,-130.052"></polygon>
<text text-anchor="middle" x="276.472" y="-148.8" font-family="Times,serif" font-size="14.00">RR_Move</text>
</g>
<!-- 52&#45;&gt;48 -->
<g id="edge46" class="edge"><title>52-&gt;48</title>
<path fill="none" stroke="black" d="M296.977,-181.315C300.332,-175.508 303.604,-168.701 305.306,-162 307.274,-154.246 307.274,-151.754 305.306,-144 304.428,-140.545 303.133,-137.061 301.625,-133.701"></path>
<polygon fill="black" stroke="black" points="304.67,-131.97 296.977,-124.685 298.448,-135.177 304.67,-131.97"></polygon>
<text text-anchor="middle" x="335.472" y="-148.8" font-family="Times,serif" font-size="14.00">RR_Move</text>
</g>
<!-- 52&#45;&gt;48 -->
<g id="edge48" class="edge"><title>52-&gt;48</title>
<path fill="none" stroke="black" d="M312.604,-193.444C331.612,-189.348 356.022,-180.599 368.306,-162 382.762,-140.111 349.775,-125.318 321.422,-117.041"></path>
<polygon fill="black" stroke="black" points="322.24,-113.637 311.672,-114.384 320.4,-120.39 322.24,-113.637"></polygon>
<text text-anchor="middle" x="400.472" y="-148.8" font-family="Times,serif" font-size="14.00">RR_Move</text>
</g>
<!-- 52&#45;&gt;48 -->
<g id="edge50" class="edge"><title>52-&gt;48</title>
<path fill="none" stroke="black" d="M312.975,-194.545C351.199,-190.413 418.589,-180.631 433.306,-162 463.967,-123.181 376.37,-112.773 323.425,-109.997"></path>
<polygon fill="black" stroke="black" points="323.492,-106.497 313.343,-109.538 323.173,-113.489 323.492,-106.497"></polygon>
<text text-anchor="middle" x="468.472" y="-148.8" font-family="Times,serif" font-size="14.00">RR_Move</text>
</g>
<!-- 44 -->
<g id="node32" class="node"><title>44</title>
<ellipse fill="none" stroke="black" cx="286.306" cy="-18" rx="27" ry="18"></ellipse>
<text text-anchor="middle" x="286.306" y="-13.8" font-family="Times,serif" font-size="14.00">44</text>
</g>
<!-- 48&#45;&gt;44 -->
<g id="edge52" class="edge"><title>48-&gt;44</title>
<path fill="none" stroke="black" d="M259.152,-107.745C230.753,-106.875 187.392,-100.537 165.973,-72 142.186,-40.3087 205.982,-27.227 249.525,-22.0887"></path>
<polygon fill="black" stroke="black" points="249.987,-25.5592 259.551,-21.0005 249.231,-18.6 249.987,-25.5592"></polygon>
<text text-anchor="middle" x="195.472" y="-58.8" font-family="Times,serif" font-size="14.00">RR_Move</text>
</g>
<!-- 48&#45;&gt;44 -->
<g id="edge54" class="edge"><title>48-&gt;44</title>
<path fill="none" stroke="black" d="M266.95,-95.1017C259.217,-89.207 251.164,-81.3402 246.973,-72 243.698,-64.7012 243.698,-61.2988 246.973,-54 249.724,-47.8705 254.137,-42.3755 259.032,-37.6561"></path>
<polygon fill="black" stroke="black" points="261.615,-40.0524 266.95,-30.8983 257.071,-34.7279 261.615,-40.0524"></polygon>
<text text-anchor="middle" x="276.472" y="-58.8" font-family="Times,serif" font-size="14.00">RR_Move</text>
</g>
<!-- 48&#45;&gt;44 -->
<g id="edge56" class="edge"><title>48-&gt;44</title>
<path fill="none" stroke="black" d="M296.977,-91.3148C300.332,-85.5078 303.604,-78.7013 305.306,-72 307.274,-64.2461 307.274,-61.7539 305.306,-54 304.428,-50.5446 303.133,-47.0613 301.625,-43.7015"></path>
<polygon fill="black" stroke="black" points="304.67,-41.9702 296.977,-34.6852 298.448,-45.1775 304.67,-41.9702"></polygon>
<text text-anchor="middle" x="335.472" y="-58.8" font-family="Times,serif" font-size="14.00">RR_Move</text>
</g>
<!-- 48&#45;&gt;44 -->
<g id="edge58" class="edge"><title>48-&gt;44</title>
<path fill="none" stroke="black" d="M312.604,-103.444C331.612,-99.3483 356.022,-90.599 368.306,-72 382.762,-50.111 349.775,-35.3183 321.422,-27.0414"></path>
<polygon fill="black" stroke="black" points="322.24,-23.6367 311.672,-24.3845 320.4,-30.3905 322.24,-23.6367"></polygon>
<text text-anchor="middle" x="400.472" y="-58.8" font-family="Times,serif" font-size="14.00">RR_Move</text>
</g>
</g>
</svg>
