<!--?xml version="1.0" encoding="UTF-8" standalone="no"?-->

<!-- Generated by graphviz version 2.28.0 (20110507.0327)
 -->
<!-- Title: Moltiplicazione Pages: 1 -->
<svg width="513pt" height="404pt" viewBox="0.00 0.00 513.00 404.00" xmlns="http://www.w3.org/2000/svg" xmlns:xlink="http://www.w3.org/1999/xlink">
<g id="graph1" class="graph" transform="scale(1 1) rotate(0) translate(4 400)">
<title>Moltiplicazione</title>
<polygon fill="white" stroke="white" points="-4,5 -4,-400 510,-400 510,5 -4,5"></polygon>
<!-- outernames -->
<g id="node2" class="node"><title>outernames</title>
</g>
<!-- rank0 -->
<g id="node4" class="node"><title>rank0</title>
</g>
<!-- outernames&#45;&gt;rank0 -->
<g id="edge3" class="edge"><title>outernames-&gt;rank0</title>
</g>
<!-- rank1 -->
<g id="node5" class="node"><title>rank1</title>
</g>
<!-- rank0&#45;&gt;rank1 -->
<g id="edge4" class="edge"><title>rank0-&gt;rank1</title>
</g>
<!-- rank2 -->
<g id="node6" class="node"><title>rank2</title>
</g>
<!-- rank1&#45;&gt;rank2 -->
<g id="edge5" class="edge"><title>rank1-&gt;rank2</title>
</g>
<!-- rank3 -->
<g id="node7" class="node"><title>rank3</title>
</g>
<!-- rank2&#45;&gt;rank3 -->
<g id="edge6" class="edge"><title>rank2-&gt;rank3</title>
</g>
<!-- N_3D -->
<g id="node8" class="node"><title>N_3D</title>
<ellipse fill="none" stroke="black" cx="332" cy="-198" rx="72.2752" ry="18"></ellipse>
<text text-anchor="middle" x="332" y="-193.8" font-family="Times,serif" font-size="14.00">Moltiplicazione</text>
</g>
<!-- 0 -->
<g id="node10" class="node"><title>0</title>
<polygon fill="none" stroke="blue" points="359,-306 305,-306 305,-270 359,-270 359,-306"></polygon>
<text text-anchor="middle" x="332" y="-283.8" font-family="Times,serif" font-size="14.00">Root0</text>
</g>
<!-- N_3D&#45;&gt;0 -->
<g id="edge8" class="edge"><title>N_3D-&gt;0</title>
<path fill="none" stroke="black" d="M332,-216.05C332,-228.342 332,-245.197 332,-259.395"></path>
<polygon fill="black" stroke="black" points="328.5,-259.614 332,-269.614 335.5,-259.614 328.5,-259.614"></polygon>
</g>
<!-- N_3E -->
<g id="node11" class="node"><title>N_3E</title>
<ellipse fill="none" stroke="black" cx="259" cy="-108" rx="35.2659" ry="18"></ellipse>
<text text-anchor="middle" x="259" y="-103.8" font-family="Times,serif" font-size="14.00">Num2</text>
</g>
<!-- N_3E&#45;&gt;N_3D -->
<g id="edge10" class="edge"><title>N_3E-&gt;N_3D</title>
<path fill="none" stroke="black" d="M272.051,-124.733C282.946,-137.867 298.675,-156.828 311.289,-172.033"></path>
<polygon fill="black" stroke="black" points="308.846,-174.571 317.925,-180.033 314.234,-170.102 308.846,-174.571"></polygon>
</g>
<!-- N_40 -->
<g id="node13" class="node"><title>N_40</title>
<ellipse fill="none" stroke="black" cx="113" cy="-18" rx="27.4962" ry="18"></ellipse>
<text text-anchor="middle" x="113" y="-13.8" font-family="Times,serif" font-size="14.00">Uno</text>
</g>
<!-- N_40&#45;&gt;N_3E -->
<g id="edge12" class="edge"><title>N_40-&gt;N_3E</title>
<path fill="none" stroke="black" d="M132.664,-30.8524C157.211,-45.6476 199.469,-71.1181 228.295,-88.4927"></path>
<polygon fill="black" stroke="black" points="226.771,-91.6609 237.142,-93.8255 230.385,-85.6657 226.771,-91.6609"></polygon>
</g>
<!-- N_41 -->
<g id="node15" class="node"><title>N_41</title>
<ellipse fill="none" stroke="black" cx="186" cy="-18" rx="27.4962" ry="18"></ellipse>
<text text-anchor="middle" x="186" y="-13.8" font-family="Times,serif" font-size="14.00">Uno</text>
</g>
<!-- N_41&#45;&gt;N_3E -->
<g id="edge14" class="edge"><title>N_41-&gt;N_3E</title>
<path fill="none" stroke="black" d="M198.693,-34.3017C209.966,-47.8909 226.613,-67.9581 239.562,-83.5684"></path>
<polygon fill="black" stroke="black" points="236.871,-85.8054 245.949,-91.2674 242.258,-81.3362 236.871,-85.8054"></polygon>
</g>
<!-- N_42 -->
<g id="node17" class="node"><title>N_42</title>
<ellipse fill="none" stroke="black" cx="259" cy="-18" rx="27.4962" ry="18"></ellipse>
<text text-anchor="middle" x="259" y="-13.8" font-family="Times,serif" font-size="14.00">Uno</text>
</g>
<!-- N_42&#45;&gt;N_3E -->
<g id="edge16" class="edge"><title>N_42-&gt;N_3E</title>
<path fill="none" stroke="black" d="M259,-36.0504C259,-48.3419 259,-65.197 259,-79.3946"></path>
<polygon fill="black" stroke="black" points="255.5,-79.614 259,-89.614 262.5,-79.6141 255.5,-79.614"></polygon>
</g>
<!-- N_43 -->
<g id="node19" class="node"><title>N_43</title>
<ellipse fill="none" stroke="black" cx="332" cy="-18" rx="27.4962" ry="18"></ellipse>
<text text-anchor="middle" x="332" y="-13.8" font-family="Times,serif" font-size="14.00">Uno</text>
</g>
<!-- N_43&#45;&gt;N_3E -->
<g id="edge18" class="edge"><title>N_43-&gt;N_3E</title>
<path fill="none" stroke="black" d="M319.307,-34.3017C308.034,-47.8909 291.387,-67.9581 278.438,-83.5684"></path>
<polygon fill="black" stroke="black" points="275.742,-81.3362 272.051,-91.2674 281.129,-85.8054 275.742,-81.3362"></polygon>
</g>
<!-- N_3F -->
<g id="node21" class="node"><title>N_3F</title>
<ellipse fill="none" stroke="black" cx="405" cy="-108" rx="35.2659" ry="18"></ellipse>
<text text-anchor="middle" x="405" y="-103.8" font-family="Times,serif" font-size="14.00">Num1</text>
</g>
<!-- N_3F&#45;&gt;N_3D -->
<g id="edge20" class="edge"><title>N_3F-&gt;N_3D</title>
<path fill="none" stroke="black" d="M391.949,-124.733C381.054,-137.867 365.325,-156.828 352.711,-172.033"></path>
<polygon fill="black" stroke="black" points="349.766,-170.102 346.075,-180.033 355.154,-174.571 349.766,-170.102"></polygon>
</g>
<!-- N_44 -->
<g id="node23" class="node"><title>N_44</title>
<ellipse fill="none" stroke="black" cx="405" cy="-18" rx="27.4962" ry="18"></ellipse>
<text text-anchor="middle" x="405" y="-13.8" font-family="Times,serif" font-size="14.00">Uno</text>
</g>
<!-- N_44&#45;&gt;N_3F -->
<g id="edge22" class="edge"><title>N_44-&gt;N_3F</title>
<path fill="none" stroke="black" d="M405,-36.0504C405,-48.3419 405,-65.197 405,-79.3946"></path>
<polygon fill="black" stroke="black" points="401.5,-79.614 405,-89.614 408.5,-79.6141 401.5,-79.614"></polygon>
</g>
<!-- N_45 -->
<g id="node25" class="node"><title>N_45</title>
<ellipse fill="none" stroke="black" cx="478" cy="-18" rx="27.4962" ry="18"></ellipse>
<text text-anchor="middle" x="478" y="-13.8" font-family="Times,serif" font-size="14.00">Uno</text>
</g>
<!-- N_45&#45;&gt;N_3F -->
<g id="edge24" class="edge"><title>N_45-&gt;N_3F</title>
<path fill="none" stroke="black" d="M465.307,-34.3017C454.034,-47.8909 437.387,-67.9581 424.438,-83.5684"></path>
<polygon fill="black" stroke="black" points="421.742,-81.3362 418.051,-91.2674 427.129,-85.8054 421.742,-81.3362"></polygon>
</g>
</g>
</svg>
